<mxfile host="app.diagrams.net" modified="2024-02-06T04:01:34.259Z" agent="Mozilla/5.0 (Windows NT 10.0; Win64; x64) AppleWebKit/537.36 (KHTML, like Gecko) Chrome/121.0.0.0 Safari/537.36 Edg/121.0.0.0" etag="y_rFlI6l6zO8-RK4f4I5" version="23.0.2" type="device">
  <diagram name="Page-1" id="Jopj-Ak8AMZtnkVz11V4">
    <mxGraphModel dx="2377" dy="1252" grid="1" gridSize="10" guides="1" tooltips="1" connect="1" arrows="1" fold="1" page="1" pageScale="1" pageWidth="827" pageHeight="1169" math="0" shadow="0">
      <root>
        <mxCell id="0" />
        <mxCell id="1" parent="0" />
        <mxCell id="yGx-_mgUBLTscShHxS1o-32" value="" style="edgeStyle=orthogonalEdgeStyle;rounded=0;orthogonalLoop=1;jettySize=auto;html=1;" edge="1" parent="1" source="yGx-_mgUBLTscShHxS1o-13" target="yGx-_mgUBLTscShHxS1o-1">
          <mxGeometry relative="1" as="geometry" />
        </mxCell>
        <mxCell id="yGx-_mgUBLTscShHxS1o-13" value="" style="shape=cube;whiteSpace=wrap;html=1;boundedLbl=1;backgroundOutline=1;darkOpacity=0.05;darkOpacity2=0.1;flipH=1;size=90;fillColor=#f5f5f5;strokeColor=#666666;fillStyle=hatch;strokeWidth=2;fontColor=#333333;" vertex="1" parent="1">
          <mxGeometry x="60" y="235" width="90" height="360" as="geometry" />
        </mxCell>
        <mxCell id="yGx-_mgUBLTscShHxS1o-1" value="" style="shape=cube;whiteSpace=wrap;html=1;boundedLbl=1;backgroundOutline=1;darkOpacity=0.05;darkOpacity2=0.1;flipH=1;size=10;fillColor=#d5e8d4;strokeColor=#82b366;" vertex="1" parent="1">
          <mxGeometry x="190" y="200" width="30" height="430" as="geometry" />
        </mxCell>
        <mxCell id="yGx-_mgUBLTscShHxS1o-2" value="" style="shape=cube;whiteSpace=wrap;html=1;boundedLbl=1;backgroundOutline=1;darkOpacity=0.05;darkOpacity2=0.1;flipH=1;size=10;fillColor=#e1d5e7;strokeColor=#9673a6;" vertex="1" parent="1">
          <mxGeometry x="260" y="325" width="30" height="180" as="geometry" />
        </mxCell>
        <mxCell id="yGx-_mgUBLTscShHxS1o-3" value="" style="shape=cube;whiteSpace=wrap;html=1;boundedLbl=1;backgroundOutline=1;darkOpacity=0.05;darkOpacity2=0.1;flipH=1;size=10;fillColor=#e1d5e7;strokeColor=#9673a6;" vertex="1" parent="1">
          <mxGeometry x="330" y="325" width="30" height="180" as="geometry" />
        </mxCell>
        <mxCell id="yGx-_mgUBLTscShHxS1o-4" value="" style="shape=cube;whiteSpace=wrap;html=1;boundedLbl=1;backgroundOutline=1;darkOpacity=0.05;darkOpacity2=0.1;flipH=1;size=10;fillColor=#f5f5f5;fontColor=#333333;strokeColor=#666666;" vertex="1" parent="1">
          <mxGeometry x="400" y="347.5" width="30" height="135" as="geometry" />
        </mxCell>
        <mxCell id="yGx-_mgUBLTscShHxS1o-18" value="16" style="text;html=1;strokeColor=none;fillColor=none;align=center;verticalAlign=middle;whiteSpace=wrap;rounded=0;" vertex="1" parent="1">
          <mxGeometry x="354" y="420" width="30" height="20" as="geometry" />
        </mxCell>
        <mxCell id="yGx-_mgUBLTscShHxS1o-19" value="16" style="text;html=1;strokeColor=none;fillColor=none;align=center;verticalAlign=middle;whiteSpace=wrap;rounded=0;" vertex="1" parent="1">
          <mxGeometry x="285" y="420" width="30" height="20" as="geometry" />
        </mxCell>
        <mxCell id="yGx-_mgUBLTscShHxS1o-20" value="10" style="text;html=1;strokeColor=none;fillColor=none;align=center;verticalAlign=middle;whiteSpace=wrap;rounded=0;" vertex="1" parent="1">
          <mxGeometry x="424" y="420" width="30" height="20" as="geometry" />
        </mxCell>
        <mxCell id="yGx-_mgUBLTscShHxS1o-24" value="" style="shape=cube;whiteSpace=wrap;html=1;boundedLbl=1;backgroundOutline=1;darkOpacity=0.05;darkOpacity2=0.1;flipH=1;size=10;fillColor=#f5f5f5;strokeColor=#666666;fontColor=#333333;" vertex="1" parent="1">
          <mxGeometry x="421" y="600" width="30" height="30" as="geometry" />
        </mxCell>
        <mxCell id="yGx-_mgUBLTscShHxS1o-26" value="Flatten" style="text;html=1;strokeColor=none;fillColor=none;align=left;verticalAlign=middle;whiteSpace=wrap;rounded=0;" vertex="1" parent="1">
          <mxGeometry x="464" y="503" width="70" height="30" as="geometry" />
        </mxCell>
        <mxCell id="yGx-_mgUBLTscShHxS1o-27" value="Linear layer + ReLU" style="text;html=1;strokeColor=none;fillColor=none;align=left;verticalAlign=middle;whiteSpace=wrap;rounded=0;" vertex="1" parent="1">
          <mxGeometry x="464" y="530" width="140" height="30" as="geometry" />
        </mxCell>
        <mxCell id="yGx-_mgUBLTscShHxS1o-28" value="Output vector" style="text;html=1;strokeColor=none;fillColor=none;align=left;verticalAlign=middle;whiteSpace=wrap;rounded=0;" vertex="1" parent="1">
          <mxGeometry x="463" y="596" width="90" height="30" as="geometry" />
        </mxCell>
        <mxCell id="yGx-_mgUBLTscShHxS1o-31" value="" style="html=1;labelBackgroundColor=#ffffff;endArrow=classic;endFill=1;jettySize=auto;orthogonalLoop=1;strokeWidth=2;fontSize=14;rounded=0;entryX=1.007;entryY=0.5;entryDx=0;entryDy=0;entryPerimeter=0;exitX=0.502;exitY=0.47;exitDx=0;exitDy=0;exitPerimeter=0;shape=flexArrow;fillColor=#d5e8d4;strokeColor=#82b366;" edge="1" parent="1">
          <mxGeometry width="60" height="60" relative="1" as="geometry">
            <mxPoint x="109" y="414.58" as="sourcePoint" />
            <mxPoint x="190" y="414.58" as="targetPoint" />
          </mxGeometry>
        </mxCell>
        <mxCell id="yGx-_mgUBLTscShHxS1o-33" value="" style="html=1;labelBackgroundColor=#ffffff;endArrow=classic;endFill=1;jettySize=auto;orthogonalLoop=1;strokeWidth=2;fontSize=14;rounded=0;shape=flexArrow;fillColor=#d5e8d4;strokeColor=#82b366;width=6;endSize=6;targetPerimeterSpacing=0;sourcePerimeterSpacing=0;startSize=6;" edge="1" parent="1">
          <mxGeometry width="60" height="60" relative="1" as="geometry">
            <mxPoint x="414" y="516.6700000000001" as="sourcePoint" />
            <mxPoint x="454" y="516.6700000000001" as="targetPoint" />
            <Array as="points" />
          </mxGeometry>
        </mxCell>
        <mxCell id="yGx-_mgUBLTscShHxS1o-38" style="edgeStyle=orthogonalEdgeStyle;rounded=0;orthogonalLoop=1;jettySize=auto;html=1;entryX=0.996;entryY=0.498;entryDx=0;entryDy=0;entryPerimeter=0;" edge="1" parent="1" source="yGx-_mgUBLTscShHxS1o-1" target="yGx-_mgUBLTscShHxS1o-2">
          <mxGeometry relative="1" as="geometry" />
        </mxCell>
        <mxCell id="yGx-_mgUBLTscShHxS1o-39" style="edgeStyle=orthogonalEdgeStyle;rounded=0;orthogonalLoop=1;jettySize=auto;html=1;entryX=0.996;entryY=0.499;entryDx=0;entryDy=0;entryPerimeter=0;" edge="1" parent="1" source="yGx-_mgUBLTscShHxS1o-2" target="yGx-_mgUBLTscShHxS1o-3">
          <mxGeometry relative="1" as="geometry" />
        </mxCell>
        <mxCell id="yGx-_mgUBLTscShHxS1o-40" style="edgeStyle=orthogonalEdgeStyle;rounded=0;orthogonalLoop=1;jettySize=auto;html=1;entryX=0.999;entryY=0.499;entryDx=0;entryDy=0;entryPerimeter=0;fillColor=#ffe6cc;strokeColor=#d79b00;" edge="1" parent="1" source="yGx-_mgUBLTscShHxS1o-3" target="yGx-_mgUBLTscShHxS1o-4">
          <mxGeometry relative="1" as="geometry" />
        </mxCell>
        <mxCell id="yGx-_mgUBLTscShHxS1o-41" value="784" style="text;html=1;strokeColor=none;fillColor=none;align=center;verticalAlign=middle;whiteSpace=wrap;rounded=0;" vertex="1" parent="1">
          <mxGeometry x="211" y="420" width="45" height="20" as="geometry" />
        </mxCell>
        <mxCell id="yGx-_mgUBLTscShHxS1o-42" style="edgeStyle=orthogonalEdgeStyle;rounded=0;orthogonalLoop=1;jettySize=auto;html=1;entryX=0.996;entryY=0.499;entryDx=0;entryDy=0;entryPerimeter=0;" edge="1" parent="1">
          <mxGeometry relative="1" as="geometry">
            <mxPoint x="414" y="544.86" as="sourcePoint" />
            <mxPoint x="454" y="544.86" as="targetPoint" />
            <Array as="points">
              <mxPoint x="435" y="544.86" />
              <mxPoint x="435" y="544.86" />
            </Array>
          </mxGeometry>
        </mxCell>
        <mxCell id="yGx-_mgUBLTscShHxS1o-44" value="Linear layer" style="text;html=1;strokeColor=none;fillColor=none;align=left;verticalAlign=middle;whiteSpace=wrap;rounded=0;" vertex="1" parent="1">
          <mxGeometry x="464" y="563" width="140" height="30" as="geometry" />
        </mxCell>
        <mxCell id="yGx-_mgUBLTscShHxS1o-45" style="edgeStyle=orthogonalEdgeStyle;rounded=0;orthogonalLoop=1;jettySize=auto;html=1;entryX=0.996;entryY=0.499;entryDx=0;entryDy=0;entryPerimeter=0;fillColor=#ffe6cc;strokeColor=#d79b00;" edge="1" parent="1">
          <mxGeometry relative="1" as="geometry">
            <mxPoint x="414" y="577.86" as="sourcePoint" />
            <mxPoint x="454" y="577.86" as="targetPoint" />
            <Array as="points">
              <mxPoint x="435" y="577.86" />
              <mxPoint x="435" y="577.86" />
            </Array>
          </mxGeometry>
        </mxCell>
        <mxCell id="yGx-_mgUBLTscShHxS1o-50" value="28" style="text;html=1;strokeColor=none;fillColor=none;align=center;verticalAlign=middle;whiteSpace=wrap;rounded=0;" vertex="1" parent="1">
          <mxGeometry x="108" y="539" width="30" height="20" as="geometry" />
        </mxCell>
        <mxCell id="yGx-_mgUBLTscShHxS1o-51" value="28" style="text;html=1;strokeColor=none;fillColor=none;align=center;verticalAlign=middle;whiteSpace=wrap;rounded=0;" vertex="1" parent="1">
          <mxGeometry x="32" y="423" width="30" height="20" as="geometry" />
        </mxCell>
        <mxCell id="yGx-_mgUBLTscShHxS1o-52" value="MLP architecture for&amp;nbsp; MNIST dataset" style="text;html=1;strokeColor=none;fillColor=none;align=center;verticalAlign=middle;whiteSpace=wrap;rounded=0;fontSize=14;" vertex="1" parent="1">
          <mxGeometry x="107" y="642" width="310" height="50" as="geometry" />
        </mxCell>
      </root>
    </mxGraphModel>
  </diagram>
</mxfile>
